<svg width="1366" height="176" viewBox="0 0 1366 176" fill="none" xmlns="http://www.w3.org/2000/svg">
<path d="M0 0H1366V146C1366 162.569 1352.57 176 1336 176H30C13.4315 176 0 162.569 0 146V0Z" fill="#2395FF"/>
<path d="M20.3188 170.013C22.5266 173.675 25.6273 175.752 28.8722 175.746L74.7643 175.65C78.386 175.642 81.9556 174.337 85.1844 171.838L187.473 92.8008C196.874 85.5367 205.3 75.1679 211.034 61.5872C217.471 46.3417 218.171 35.3091 215.629 27.5151C213.094 19.7157 206.932 13.988 195.151 12.821C184.657 11.7825 174.219 15.99 164.819 23.2487L130.187 50.0086L53.3018 6.08152C52.3774 5.13327 51.3034 4.57822 50.1909 4.47376C49.0784 4.36929 47.9677 4.71921 46.9738 5.48733L23.859 23.3504C20.1079 26.2464 19.2009 33.8692 22.0414 38.6227L76.9615 91.136L40.6774 119.175L15.2424 99.6527C14.3661 98.98 13.3981 98.6304 12.4168 98.6323C11.4354 98.6341 10.4681 98.9873 9.59285 99.6634L-4.51508 110.568C-8.18533 113.405 -9.1521 120.803 -6.47325 125.599L20.3188 170.013Z" fill="#41A4FF"/>
</svg>
