<svg xmlns="http://www.w3.org/2000/svg" viewBox="0 0 128 128"><defs><style>.cls-1{isolation:isolate;}.cls-2{mix-blend-mode:multiply;}.cls-3{fill:#e05951;}.cls-4{fill:#e2bc00;}.cls-5{fill:#52ae49;}.cls-6{fill:#489de3;}.cls-7{fill:#093357;}</style></defs><title>rainbow</title><g class="cls-1"><g id="icons" class="cls-2"><path class="cls-3" d="M64,56a40.06,40.06,0,0,1,40,40h10a2,2,0,0,0,2-2.1,52,52,0,0,0-104,0A2,2,0,0,0,14,96H24A40.06,40.06,0,0,1,64,56Z"/><path class="cls-4" d="M64,56A40.06,40.06,0,0,0,24,96H36a28,28,0,0,1,56,0h12A40.06,40.06,0,0,0,64,56Z"/><path class="cls-5" d="M64,80A16,16,0,0,1,80,96H92a28,28,0,0,0-56,0H48A16,16,0,0,1,64,80Z"/><path class="cls-6" d="M64,80A16,16,0,0,0,48,96H59.1a1,1,0,0,0,1-.83,4,4,0,0,1,7.83,0,1,1,0,0,0,1,.83H80A16,16,0,0,0,64,80Z"/><path class="cls-7" d="M64,40a2,2,0,0,1-2-2V34a2,2,0,0,1,4,0v4A2,2,0,0,1,64,40Z"/><path class="cls-7" d="M41.81,44.42A2,2,0,0,1,40,43.18l-1.53-3.7A2,2,0,1,1,42.12,38l1.53,3.7a2,2,0,0,1-1.85,2.77Z"/><path class="cls-7" d="M23,57a2,2,0,0,1-1.41-.59l-2.83-2.83a2,2,0,0,1,2.83-2.83l2.83,2.83A2,2,0,0,1,23,57Z"/><path class="cls-7" d="M86.19,44.42a2,2,0,0,1-1.85-2.77L85.88,38a2,2,0,1,1,3.7,1.53L88,43.18A2,2,0,0,1,86.19,44.42Z"/><path class="cls-7" d="M105,57a2,2,0,0,1-1.41-3.41l2.83-2.83a2,2,0,0,1,2.83,2.83l-2.83,2.83A2,2,0,0,1,105,57Z"/></g></g></svg>