<svg width="156" height="24" viewBox="0 0 156 24" fill="none" xmlns="http://www.w3.org/2000/svg">
<path d="M18 2H15C13.6739 2 12.4021 2.52678 11.4645 3.46447C10.5268 4.40215 10 5.67392 10 7V10H7V14H10V22H14V14H17L18 10H14V7C14 6.73478 14.1054 6.48043 14.2929 6.29289C14.4804 6.10536 14.7348 6 15 6H18V2Z" stroke="#595959" stroke-width="2" stroke-linecap="round" stroke-linejoin="round"/>
<path d="M67 3.00005C66.0424 3.67552 64.9821 4.19216 63.86 4.53005C63.2577 3.83756 62.4573 3.34674 61.567 3.12397C60.6767 2.90121 59.7395 2.95724 58.8821 3.2845C58.0247 3.61176 57.2884 4.19445 56.773 4.95376C56.2575 5.71308 55.9877 6.61238 56 7.53005V8.53005C54.2426 8.57561 52.5013 8.18586 50.931 7.39549C49.3607 6.60513 48.0103 5.43868 47 4.00005C47 4.00005 43 13 52 17C49.9405 18.398 47.4872 19.099 45 19C54 24 65 19 65 7.50005C64.9991 7.2215 64.9723 6.94364 64.92 6.67005C65.9406 5.66354 66.6608 4.39276 67 3.00005V3.00005Z" stroke="#595959" stroke-width="2" stroke-linecap="round" stroke-linejoin="round"/>
<path d="M105 2H95C92.2386 2 90 4.23858 90 7V17C90 19.7614 92.2386 22 95 22H105C107.761 22 110 19.7614 110 17V7C110 4.23858 107.761 2 105 2Z" stroke="#595959" stroke-width="2" stroke-linecap="round" stroke-linejoin="round"/>
<path d="M104 11.3701C104.123 12.2023 103.981 13.0523 103.593 13.7991C103.206 14.5459 102.593 15.1515 101.841 15.5297C101.09 15.908 100.238 16.0397 99.4075 15.906C98.5768 15.7723 97.8095 15.3801 97.2145 14.7852C96.6196 14.1903 96.2274 13.4229 96.0938 12.5923C95.9601 11.7616 96.0918 10.91 96.47 10.1584C96.8483 9.40691 97.4539 8.7938 98.2007 8.4063C98.9475 8.0188 99.7975 7.87665 100.63 8.00006C101.479 8.12594 102.265 8.52152 102.871 9.12836C103.478 9.73521 103.874 10.5211 104 11.3701Z" stroke="#595959" stroke-width="2" stroke-linecap="round" stroke-linejoin="round"/>
<path d="M105.5 6.5H105.51" stroke="#595959" stroke-width="2" stroke-linecap="round" stroke-linejoin="round"/>
<g clip-path="url(#clip0_892_37)">
<path d="M154.541 6.42C154.422 5.94541 154.18 5.51057 153.839 5.15941C153.499 4.80824 153.071 4.55318 152.601 4.42C150.881 4 144.001 4 144.001 4C144.001 4 137.121 4 135.401 4.46C134.93 4.59318 134.503 4.84824 134.162 5.19941C133.821 5.55057 133.579 5.98541 133.461 6.46C133.146 8.20556 132.992 9.97631 133.001 11.75C132.989 13.537 133.143 15.3213 133.461 17.08C133.592 17.5398 133.839 17.9581 134.179 18.2945C134.519 18.6308 134.939 18.8738 135.401 19C137.121 19.46 144.001 19.46 144.001 19.46C144.001 19.46 150.881 19.46 152.601 19C153.071 18.8668 153.499 18.6118 153.839 18.2606C154.18 17.9094 154.422 17.4746 154.541 17C154.853 15.2676 155.007 13.5103 155.001 11.75C155.012 9.96295 154.858 8.1787 154.541 6.42V6.42Z" stroke="#595959" stroke-width="2" stroke-linecap="round" stroke-linejoin="round"/>
<path d="M141.75 15.02L147.5 11.75L141.75 8.47998V15.02Z" stroke="#595959" stroke-width="2" stroke-linecap="round" stroke-linejoin="round"/>
</g>
<defs>
<clipPath id="clip0_892_37">
<rect width="24" height="24" fill="white" transform="translate(132)"/>
</clipPath>
</defs>
</svg>
